<svg width="551" height="551" viewBox="0 0 551 551" fill="none" xmlns="http://www.w3.org/2000/svg">
<rect x="0.921387" y="0.332275" width="550" height="550" rx="50" fill="#151515"/>
<path d="M323.455 135.378C314.46 135.378 306.934 135.274 299.408 135.397C280.342 135.714 266.004 144.094 256.463 160.636C237.975 192.681 219.436 224.698 200.931 256.735C193.968 268.792 193.624 281.038 200.601 293.125C220.583 327.743 240.239 362.558 260.997 396.711C271.685 414.298 282.007 414.532 292.55 397.223C313.779 362.371 334.326 327.06 353.646 291.133C357.708 283.583 358.607 271.084 355.196 263.424C345.939 242.648 333.584 223.246 320.769 200.269C313.285 208.306 306.305 213.855 301.832 220.973C289.39 240.766 277.849 261.129 266.25 281.434C261.272 290.148 255.341 296.264 244.828 290.712C235.623 285.848 230.759 270.69 235.345 262.832C249.707 238.227 263.729 213.41 278.773 189.225C291.414 168.898 315.389 159.808 338.567 165.519C341.322 166.196 344.157 169.129 345.682 171.751C361.076 198.214 376.124 224.875 391.432 251.387C400.794 267.6 400.679 283.534 391.269 299.692C367.084 341.219 341.788 382.165 319.371 424.624C303.043 455.549 252.539 457.811 234.283 424.027C211.651 382.145 187.063 341.315 162.991 300.218C153.224 283.536 153.276 267.427 162.903 250.845C186.393 210.391 211.033 170.527 232.689 129.113C252.084 92.0194 306.506 91.813 323.455 135.378" fill="#9D9D9D"/>
<path d="M339.161 447.414C350.294 428.561 360.607 411.076 370.946 393.602C388.259 364.358 404.758 334.588 423.176 306.054C436.855 284.858 436.609 266.231 423.292 244.71C396.03 200.663 370.654 155.455 344.527 110.71C343.284 108.578 342.288 106.3 341.138 104.01C361.228 97.9931 380.471 103.713 391.482 120.667C404.424 140.595 416.04 161.39 428.033 181.926C440.884 203.937 453.202 226.259 466.312 248.113C477.224 266.313 477.373 283.817 466.571 302.175C443.308 341.712 420.19 381.345 397.734 421.342C384.963 444.087 366.299 452.124 339.161 447.414Z" fill="#9D9D9D"/>
<path d="M213.193 102.159C197.739 128.245 183.187 152.58 168.866 177.051C154.904 200.908 141.808 225.296 127.151 248.716C115.64 267.098 115.943 283.612 127.217 302.189C153.241 345.072 177.997 388.722 203.246 432.075C206.139 437.047 208.888 442.107 212.297 448.179C188.595 450.991 169.909 446.718 158.012 426.143C133.107 383.073 108.114 340.05 83.3587 296.895C75.3201 282.882 75.2153 268.264 83.2347 254.276C108.407 210.384 133.866 166.659 159.297 122.915C170.904 102.949 189.811 100.569 213.193 102.159Z" fill="#9D9D9D"/>
</svg>
